<svg width="22" height="22" viewBox="0 0 22 22" fill="none" xmlns="http://www.w3.org/2000/svg">
<path fill-rule="evenodd" clip-rule="evenodd" d="M11.5 12C12.3284 12 13 11.3284 13 10.5C13 9.67157 12.3284 9 11.5 9C10.6716 9 10 9.67157 10 10.5C10 11.3284 10.6716 12 11.5 12ZM11.5 13C12.8807 13 14 11.8807 14 10.5C14 9.11929 12.8807 8 11.5 8C10.1193 8 9 9.11929 9 10.5C9 11.8807 10.1193 13 11.5 13Z"/>
<path d="M11 3H12V7H11V3Z"/>
<path d="M15 11V10H19V11H15Z"/>
<path d="M4 11V10H8V11H4Z"/>
<path d="M11 14H12V18H11V14Z"/>
<rect width="1" height="5"/>
<rect x="21" width="1" height="5"/>
<rect y="17" width="1" height="5"/>
<rect x="21" y="17" width="1" height="5"/>
<rect x="17" y="22" width="1" height="5" transform="rotate(-90 17 22)"/>
<rect y="22" width="1" height="5" transform="rotate(-90 0 22)"/>
<rect y="1" width="1" height="5" transform="rotate(-90 0 1)"/>
<rect x="17" y="1" width="1" height="5" transform="rotate(-90 17 1)"/>
</svg>
