<svg width="20" height="20" viewBox="0 0 20 20" fill="none" xmlns="http://www.w3.org/2000/svg">
<g clip-path="url(#clip0)">
<path d="M5.20662 2.5C5.64254 2.5 5.98386 2.65451 6.23186 2.96209C6.47987 3.26967 6.61282 3.65774 6.63071 4.12271C6.63071 4.58193 6.49137 4.96928 6.21077 5.28405C5.93017 5.5981 5.54666 5.75548 5.06152 5.75548H5.04426C4.57063 5.75548 4.19543 5.5981 3.91611 5.28405C3.63998 4.96928 3.5 4.58193 3.5 4.12271C3.5 3.65056 3.65213 3.26249 3.95893 2.95706C4.26574 2.65235 4.68249 2.5 5.20662 2.5ZM3.68345 7.04474H6.67673V16.4993H3.68345V7.04474ZM17.5 11.0785V16.4993H14.5074V11.4429C14.5074 10.7997 14.3897 10.2844 14.1558 9.89202C13.9231 9.50323 13.5339 9.30848 12.9842 9.30848C12.5655 9.30848 12.2293 9.42778 11.9787 9.66781C11.7275 9.9064 11.5454 10.1701 11.4354 10.4598C11.3996 10.5647 11.3773 10.6804 11.3651 10.809C11.3536 10.9355 11.3485 11.0728 11.3485 11.2172V16.5H8.33733C8.35011 14.9003 8.35714 13.4328 8.35714 12.1019V10.4209V8.89382C8.35714 8.42885 8.35267 8.03216 8.34564 7.70302C8.3418 7.37675 8.33733 7.15613 8.33733 7.04474H11.3485V8.38358L11.3319 8.42239H11.3485V8.38358C11.4418 8.21901 11.5614 8.04725 11.7071 7.86687C11.8547 7.68721 12.0312 7.51904 12.2459 7.36382C12.4588 7.21003 12.7151 7.08354 13.0155 6.98078C13.3178 6.87945 13.6617 6.82914 14.0535 6.82914C14.5406 6.82914 14.9957 6.9125 15.4201 7.07995C15.8432 7.2474 16.2069 7.5097 16.5163 7.86759C16.8237 8.22332 17.0647 8.66601 17.2399 9.19493C17.4143 9.72242 17.5 10.3505 17.5 11.0785Z"/>
</g>
<defs>
<clipPath id="clip0">
<rect width="14" height="14" fill="white" transform="translate(3.5 2.5)"/>
</clipPath>
</defs>
</svg>
