<svg width="20" height="20" viewBox="0 0 20 20" fill="none" xmlns="http://www.w3.org/2000/svg">
<g clip-path="url(#clip0)">
<path d="M12.9434 10.577L18.0002 13.7739V7.24512L12.9434 10.577Z" />
<path d="M3 7.24512V13.7739L8.05688 10.577L3 7.24512Z" />
<path d="M17.0627 5.34375H3.9377C3.46988 5.34375 3.09863 5.6925 3.02832 6.14156L10.5002 11.0644L17.9721 6.14156C17.9018 5.6925 17.5305 5.34375 17.0627 5.34375Z" />
<path d="M12.0837 11.143L10.7571 12.0168C10.6784 12.0683 10.5893 12.0937 10.4993 12.0937C10.4093 12.0937 10.3202 12.0683 10.2415 12.0168L8.91492 11.1421L3.0293 14.8649C3.10148 15.3102 3.47086 15.6562 3.9368 15.6562H17.0618C17.5277 15.6562 17.8971 15.3102 17.9693 14.8649L12.0837 11.143Z" />
</g>
<defs>
<clipPath id="clip0">
<rect width="15" height="15" fill="white" transform="translate(3 3)"/>
</clipPath>
</defs>
</svg>
