<svg width="20" height="20" viewBox="0 0 20 20" fill="none" xmlns="http://www.w3.org/2000/svg">
<path d="M4.07031 9.46875C4.66927 8.75 5.42188 8.39062 6.32812 8.39062C8.16146 8.39062 9.09115 9.45573 9.11719 11.5859V17H6.85938V11.6484C6.85938 11.1641 6.75521 10.8073 6.54688 10.5781C6.33854 10.3438 5.99219 10.2266 5.50781 10.2266C4.84635 10.2266 4.36719 10.4818 4.07031 10.9922V17H1.8125V5H4.07031V9.46875ZM13.0234 9.46875C13.6224 8.75 14.375 8.39062 15.2812 8.39062C17.1146 8.39062 18.0443 9.45573 18.0703 11.5859V17H15.8125V11.6484C15.8125 11.1641 15.7083 10.8073 15.5 10.5781C15.2917 10.3438 14.9453 10.2266 14.4609 10.2266C13.7995 10.2266 13.3203 10.4818 13.0234 10.9922V17H10.7656V5H13.0234V9.46875Z" />
</svg>
