<svg width="20" height="20" viewBox="0 0 20 20" fill="none" xmlns="http://www.w3.org/2000/svg">
<path d="M10.5019 2H10.4981C6.36281 2 3 5.36375 3 9.5C3 11.1406 3.52875 12.6613 4.42781 13.8959L3.49313 16.6822L6.37594 15.7606C7.56188 16.5463 8.97656 17 10.5019 17C14.6372 17 18 13.6353 18 9.5C18 5.36469 14.6372 2 10.5019 2ZM14.8659 12.5909C14.685 13.1019 13.9669 13.5256 13.3941 13.6494C13.0022 13.7328 12.4903 13.7994 10.7672 13.085C8.56312 12.1719 7.14375 9.93219 7.03313 9.78687C6.92719 9.64156 6.1425 8.60094 6.1425 7.52469C6.1425 6.44844 6.68906 5.92438 6.90938 5.69938C7.09031 5.51469 7.38937 5.43031 7.67625 5.43031C7.76906 5.43031 7.8525 5.435 7.9275 5.43875C8.14781 5.44812 8.25844 5.46125 8.40375 5.80906C8.58469 6.245 9.02531 7.32125 9.07781 7.43188C9.13125 7.5425 9.18469 7.6925 9.10969 7.83781C9.03938 7.98781 8.9775 8.05437 8.86687 8.18187C8.75625 8.30937 8.65125 8.40688 8.54062 8.54375C8.43937 8.66281 8.325 8.79031 8.4525 9.01063C8.58 9.22625 9.02062 9.94531 9.66937 10.5228C10.5066 11.2681 11.1853 11.5063 11.4281 11.6075C11.6091 11.6825 11.8247 11.6647 11.9569 11.5241C12.1247 11.3431 12.3319 11.0431 12.5428 10.7478C12.6928 10.5359 12.8822 10.5097 13.0809 10.5847C13.2834 10.655 14.355 11.1847 14.5753 11.2944C14.7956 11.405 14.9409 11.4575 14.9944 11.5503C15.0469 11.6431 15.0469 12.0791 14.8659 12.5909Z" />
</svg>
